<svg xmlns="http://www.w3.org/2000/svg" width="166" height="30" viewBox="0 0 166 30">
  <g id="star-grp" transform="translate(-721 -316)">
    <path id="star" d="M39.665,61.982a.955.955,0,0,1-.587-.2l-8.039-6.243L23,61.781a.947.947,0,0,1-1.18,0,1.116,1.116,0,0,1-.354-1.206L24.6,50.623l-8.126-5.969a1.112,1.112,0,0,1-.391-1.2,1.011,1.011,0,0,1,.953-.756H27.063l3.025-9.973a.981.981,0,0,1,1.9,0L35.016,42.7H45.04a1.01,1.01,0,0,1,.956.754,1.112,1.112,0,0,1-.39,1.2l-8.129,5.966,3.133,9.945a1.135,1.135,0,0,1-.134.967A.981.981,0,0,1,39.665,61.982Z" transform="translate(704.959 284.015)" fill="#49cae4"/>
    <path id="star-2" data-name="star" d="M39.665,61.982a.955.955,0,0,1-.587-.2l-8.039-6.243L23,61.781a.947.947,0,0,1-1.18,0,1.116,1.116,0,0,1-.354-1.206L24.6,50.623l-8.126-5.969a1.112,1.112,0,0,1-.391-1.2,1.011,1.011,0,0,1,.953-.756H27.063l3.025-9.973a.981.981,0,0,1,1.9,0L35.016,42.7H45.04a1.01,1.01,0,0,1,.956.754,1.112,1.112,0,0,1-.39,1.2l-8.129,5.966,3.133,9.945a1.135,1.135,0,0,1-.134.967A.981.981,0,0,1,39.665,61.982Z" transform="translate(772.959 284.015)" fill="#49cae4"/>
    <path id="star-3" data-name="star" d="M39.665,61.982a.955.955,0,0,1-.587-.2l-8.039-6.243L23,61.781a.947.947,0,0,1-1.18,0,1.116,1.116,0,0,1-.354-1.206L24.6,50.623l-8.126-5.969a1.112,1.112,0,0,1-.391-1.2,1.011,1.011,0,0,1,.953-.756H27.063l3.025-9.973a.981.981,0,0,1,1.9,0L35.016,42.7H45.04a1.01,1.01,0,0,1,.956.754,1.112,1.112,0,0,1-.39,1.2l-8.129,5.966,3.133,9.945a1.135,1.135,0,0,1-.134.967A.981.981,0,0,1,39.665,61.982Z" transform="translate(738.959 284.015)" fill="#49cae4"/>
    <path id="star-4" data-name="star" d="M39.665,61.982a.955.955,0,0,1-.587-.2l-8.039-6.243L23,61.781a.947.947,0,0,1-1.18,0,1.116,1.116,0,0,1-.354-1.206L24.6,50.623l-8.126-5.969a1.112,1.112,0,0,1-.391-1.2,1.011,1.011,0,0,1,.953-.756H27.063l3.025-9.973a.981.981,0,0,1,1.9,0L35.016,42.7H45.04a1.01,1.01,0,0,1,.956.754,1.112,1.112,0,0,1-.39,1.2l-8.129,5.966,3.133,9.945a1.135,1.135,0,0,1-.134.967A.981.981,0,0,1,39.665,61.982Z" transform="translate(806.959 284.015)" fill="#49cae4"/>
    <path id="star-5" data-name="star" d="M39.665,61.982a.955.955,0,0,1-.587-.2l-8.039-6.243L23,61.781a.947.947,0,0,1-1.18,0,1.116,1.116,0,0,1-.354-1.206L24.6,50.623l-8.126-5.969a1.112,1.112,0,0,1-.391-1.2,1.011,1.011,0,0,1,.953-.756H27.063l3.025-9.973a.981.981,0,0,1,1.9,0L35.016,42.7H45.04a1.01,1.01,0,0,1,.956.754,1.112,1.112,0,0,1-.39,1.2l-8.129,5.966,3.133,9.945a1.135,1.135,0,0,1-.134.967A.981.981,0,0,1,39.665,61.982Z" transform="translate(840.959 284.015)" fill="#49cae4"/>
  </g>
</svg>
